:SAMPLES-PER-SECOND 30
:FULLY-SPECIFIED
:DEGREES
337
root  -3.6523 40.6688 -1.65942 -5.07562 -44.775 3.36731
RightUpLeg  8.66089 -5.55323 0.150067
RightLeg  -4.58049 -62.8224 6.2944
RightFoot  -3.65375 -0.238378 3.20054
RightToes  -3.10678e-008 1.75238e-005 3.56266e-009
Spine  1.17426 6.20185 0.0575342
Spine1  -2.41558 6.25665 1.54399
HEad  7.40242 -18.3792 -0.587533
LeftShoulder1  1.25973 -1.11108 -20.8895
LeftArm  -4.32883 -19.0479 -53.8863
LeftForeArm  50.5391 -74.9543 -38.8497
LeftHand  -0.534405 -4.17757 6.7628
RightShoulder  1.7062 2.68577 21.3169
RightArm  0.291705 -14.4473 41.6793
RightForeArm  53.6464 77.2803 51.4715
RightHand  -0.302587 7.92482 -3.00137
LeftUpLeg  -3.39845 -3.16052 -0.643946
LeftLeg  2.40239 -21.6365 0.270036
LeftFoot  1.868 0.701422 -6.15296
LeftToes  4.7643e-008 1.47522e-008 1.32869e-009
338
root  -3.64965 40.6639 -1.76028 -4.51367 -44.157 3.19763
RightUpLeg  8.13863 -5.32308 0.508679
RightLeg  -4.9663 -63.6887 6.65853
RightFoot  -3.66272 -0.231096 3.11383
RightToes  -3.10678e-008 1.75238e-005 3.56266e-009
Spine  1.0391 7.45525 0.182748
Spine1  -2.37085 7.51358 1.48489
HEad  6.76304 -17.3343 -0.709928
LeftShoulder1  1.23869 -0.933096 -21.5411
LeftArm  -4.7733 -19.1216 -53.2406
LeftForeArm  52.2476 -75.5492 -40.9358
LeftHand  -0.491625 -4.56411 6.02134
RightShoulder  1.96707 3.60373 21.4026
RightArm  -0.166354 -13.1124 42.4706
RightForeArm  51.9177 76.959 49.6415
RightHand  -0.365793 8.2331 -3.4881
LeftUpLeg  -4.07018 -3.15443 -0.45604
LeftLeg  2.39497 -22.4067 0.269815
LeftFoot  2.02393 0.743002 -6.44244
LeftToes  4.7643e-008 1.47522e-008 1.32869e-009
339
root  -3.64084 40.6628 -1.86349 -3.89825 -43.4875 2.91595
RightUpLeg  7.71295 -5.10436 0.912812
RightLeg  -5.8026 -64.602 7.5272
RightFoot  -3.7149 -0.216602 2.90912
RightToes  -3.10678e-008 1.75238e-005 3.56266e-009
Spine  2.49367 8.45516 2.3239
Spine1  -3.99523 8.95191 -2.05401
HEad  6.01302 -17.6465 0.742919
LeftShoulder1  1.2546 -1.11539 -20.7289
LeftArm  -4.04889 -19.8738 -53.9408
LeftForeArm  52.1694 -75.525 -40.8548
LeftHand  -0.468764 -4.76274 5.6499
RightShoulder  2.11023 3.75457 22.9026
RightArm  -1.22849 -13.5195 42.4063
RightForeArm  52.7096 77.1438 50.7548
RightHand  -0.338061 8.11154 -3.27624
LeftUpLeg  -4.71364 -3.07431 -0.195128
LeftLeg  2.32253 -23.2706 0.313602
LeftFoot  2.2422 0.795231 -6.78747
LeftToes  4.7643e-008 1.47522e-008 1.32869e-009
340
root  -3.62955 40.6568 -1.95719 -3.30811 -42.6922 2.55048
RightUpLeg  7.47724 -4.85024 1.37812
RightLeg  -7.18711 -65.6559 8.90044
RightFoot  -3.7765 -0.200653 2.67621
RightToes  -3.10678e-008 1.75238e-005 3.56266e-009
Spine  2.93391 8.91399 1.95897
Spine1  -4.39885 9.36401 -1.87811
HEad  5.03841 -17.1731 0.697668
LeftShoulder1  1.34753 -1.357 -21.3387
LeftArm  -4.08362 -20.5434 -53.8633
LeftForeArm  52.4647 -75.5535 -40.895
LeftHand  -0.523713 -4.90616 6.20242
RightShoulder  2.19734 4.00779 23.0888
RightArm  -1.66217 -13.8388 42.5547
RightForeArm  51.7924 76.9682 49.7914
RightHand  -0.358794 8.00612 -3.47525
LeftUpLeg  -5.36058 -2.80074 0.150384
LeftLeg  2.4365 -24.4191 0.146629
LeftFoot  2.33462 0.834839 -7.07527
LeftToes  4.7643e-008 1.47522e-008 1.32869e-009
341
root  -3.59855 40.6452 -2.03231 -2.90942 -41.937 2.30457
RightUpLeg  7.10156 -4.77903 1.6379
RightLeg  -7.30806 -66.5423 9.1675
RightFoot  -3.90214 -0.19704 2.62954
RightToes  -3.10678e-008 1.75238e-005 3.56266e-009
Spine  3.29043 8.72165 1.41831
Spine1  -4.59952 9.09939 -1.40091
HEad  3.70622 -15.7522 0.246847
LeftShoulder1  1.33499 -1.27038 -21.5837
LeftArm  -4.61664 -20.902 -53.4718
LeftForeArm  52.7146 -75.701 -41.524
LeftHand  -0.45486 -4.70793 5.52539
RightShoulder  2.36764 4.49577 23.4404
RightArm  -1.58715 -13.6756 42.393
RightForeArm  49.3725 76.4094 46.8257
RightHand  -0.318651 8.00933 -3.12882
LeftUpLeg  -5.91076 -2.83582 0.281751
LeftLeg  2.60206 -25.2609 0.132318
LeftFoot  2.3866 0.878172 -7.40946
LeftToes  4.7643e-008 1.47522e-008 1.32869e-009
342
root  -3.54376 40.6336 -2.08864 -2.81219 -41.2078 2.25818
RightUpLeg  6.73048 -4.99696 1.57132
RightLeg  -6.38826 -67.1514 8.58063
RightFoot  -4.12608 -0.198921 2.66341
RightToes  -3.10678e-008 1.75238e-005 3.56266e-009
Spine  3.49147 8.14004 1.18204
Spine1  -4.1666 8.55126 -1.50472
HEad  1.75125 -14.5164 -0.021773
LeftShoulder1  1.26303 -1.06346 -21.2531
LeftArm  -5.16212 -21.2517 -53.6504
LeftForeArm  51.9834 -75.5824 -41.1909
LeftHand  -0.447614 -4.31922 5.63226
RightShoulder  2.51544 4.85523 23.9693
RightArm  -1.20713 -13.1084 42.1421
RightForeArm  47.7245 76.0345 45.1421
RightHand  -0.358447 7.92063 -3.49077
LeftUpLeg  -6.2231 -2.94344 0.231999
LeftLeg  2.64465 -25.8799 0.129317
LeftFoot  2.4726 0.938399 -7.86299
LeftToes  4.7643e-008 1.47522e-008 1.32869e-009
343
root  -3.49776 40.6334 -2.13083 -2.81464 -41.1968 2.22528
RightUpLeg  6.52203 -5.03035 1.57008
RightLeg  -5.71117 -67.1825 8.02545
RightFoot  -4.26117 -0.200083 2.6819
RightToes  -3.10678e-008 1.75238e-005 3.56266e-009
Spine  3.77093 8.05459 0.197088
Spine1  -3.99385 8.3082 -0.268347
HEad  -0.109191 -13.3175 -0.219471
LeftShoulder1  1.34892 -1.27827 -21.849
LeftArm  -5.26767 -21.091 -53.217
LeftForeArm  51.9565 -75.4852 -40.7306
LeftHand  -0.497676 -4.91215 5.90706
RightShoulder  2.42746 4.71099 23.3958
RightArm  -1.28665 -12.901 42.6709
RightForeArm  47.4105 75.9688 44.8819
RightHand  -0.35684 8.01266 -3.45809
LeftUpLeg  -6.28576 -2.74885 0.336053
LeftLeg  2.58256 -26.0118 0.0156179
LeftFoot  2.58902 0.974672 -8.09826
LeftToes  4.7643e-008 1.47522e-008 1.32869e-009
